Maa 1976 1GB Dvdrip X264 AAC [RRG DBB][DADA]



Cover -
 
http://desibbrg.org/images/21528340072123174403.jpg


Screens -
 
http://desibbrg.org/images/92549869746031374368.jpg


General

Format                           : MP4 Video
File size                        : 1.03 GiB
Duration                         : 2h 18mn
Overall bit rate                 : 1 067 Kbps


Video
Format                           : AVC
Format/Info                      : Advanced Video Codec
Format profile                   : Main@L3.0
Format settings, CABAC           : Yes
Format settings, ReFrames        : 3 frames
Duration                         : 2h 18mn
Bit rate                         : 930 Kbps
Width                            : 854 pixels
Height                           : 480 pixels
Display aspect ratio             : 16:9
Frame rate mode                  : Constant
Frame rate                       : 25.000 fps
Color space                      : YUV
Chroma subsampling               : 4:2:0
Bit depth                        : 8 bits
Scan type                        : Progressive
Bits/(Pixel*Frame)               : 0.091
Stream size                      : 921 MiB (87%)

Audio
Format                           : AAC
Format/Info                      : Advanced Audio Codec
Format version                   : Version 4
Format profile                   : LC
Format settings, SBR             : No
Duration                         : 2h 18mn
Bit rate                         : 129 Kbps
Channel(s)                       : 2 channels
Channel positions                : Front: L R
Sampling rate                    : 44.1 KHz
Bit depth                        : 16 bits
Stream size                      : 127 MiB (12%)


 
http://www.imdb.com/title/tt0276309/



About this movie

    Genres:
Indian Cinema, Drama, Family
    Language:
Hindi
    Running time:
2:18:27
    Released:
Jul 20, 1976

Cast & Crew
Cast

    Dharmendra
    Hema Malini
    Nirupa Roy
    Ranjeet
    Om Prakash
    Paintal
    Shashi Kiran

Directors

    M.A. Thirumugham

Producers

    M.M.Chinnappa Devar

Writers

    Inder Raj Anand

Super Hit Bollywood movie Maa (1976) Synopsis: MAA is about the bond between a mother and child, which is the strongest and perhaps the most unselfish, at least from the mother s point of view. Maa, the movie, delves into this relationship. Laden around a plot involving the relationship of an elephant cow and her calf, it re-establishes the universal bond of unselfish love. Vijay a poacher, who supplies trapped animals to Balraj a smuggler, never realize the intensity of harm he does to the animals when he separates their babies. However, things change when an elephant cow in a fit of anger kills his mother. Vijay realizes his mistake, only after loosing his own mother. Vijay separates himself from Balraj with a gigantic task ahead of him to rescue the baby elephant. Vijay sets out to do the needful. Is Vijay successful in his task? Is he able to rescue the baby elephant? Does the elephant cow get its baby back? For all these answers, watch this fast moving adventure, Maa on Ultra DVD. 
